<?xml version="1.0" encoding="utf-8"?>
<!-- Generator: Adobe Illustrator 23.1.0, SVG Export Plug-In . SVG Version: 6.00 Build 0)  -->
<svg version="1.1" id="Capa_1" xmlns="http://www.w3.org/2000/svg" xmlns:xlink="http://www.w3.org/1999/xlink" x="0px" y="0px"
	 viewBox="0 0 512 512" style="enable-background:new 0 0 512 512;" xml:space="preserve">
<style type="text/css">
	.st0{fill:#E4E4E4;}
</style>
<path class="st0" d="M32,32c17.7,0,32,14.3,32,32v336c0,8.8,7.2,16,16,16h400c17.7,0,32,14.3,32,32s-14.3,32-32,32H80
	c-44.2,0-80-35.8-80-80V64C0,46.3,14.3,32,32,32z M128,128c0-17.7,14.3-32,32-32h192c17.7,0,32,14.3,32,32s-14.3,32-32,32H160
	C142.3,160,128,145.7,128,128z M160,192h128c17.7,0,32,14.3,32,32s-14.3,32-32,32H160c-17.7,0-32-14.3-32-32S142.3,192,160,192z
	 M160,288h256c17.7,0,32,14.3,32,32s-14.3,32-32,32H160c-17.7,0-32-14.3-32-32S142.3,288,160,288z"/>
</svg>
