<?xml version="1.0" encoding="utf-8"?>
<!-- Generator: Adobe Illustrator 23.1.0, SVG Export Plug-In . SVG Version: 6.00 Build 0)  -->
<svg version="1.1" id="Capa_1" xmlns="http://www.w3.org/2000/svg" xmlns:xlink="http://www.w3.org/1999/xlink" x="0px" y="0px"
	 viewBox="0 0 595.3 841.9" style="enable-background:new 0 0 595.3 841.9;" xml:space="preserve">
<style type="text/css">
	.st0{fill-rule:evenodd;clip-rule:evenodd;fill:#FFEEAA;stroke:#000000;stroke-width:6.4;stroke-miterlimit:3.2;}
	.st1{fill:#FFFFFF;stroke:#000000;stroke-width:6.4;stroke-miterlimit:3.2;}
	.st2{fill:none;stroke:#000000;stroke-width:6.4;stroke-miterlimit:3.2;}
	.st3{fill:#442B65;stroke:#000000;stroke-width:6.4;stroke-miterlimit:3.2;}
	.st4{fill:#E6E6E6;stroke:#000000;stroke-width:6.4;stroke-miterlimit:3.2;}
	.st5{fill:#FFFFFF;stroke:#000000;stroke-width:7.1371;stroke-miterlimit:3.2;}
	.st6{stroke:#000000;stroke-width:6.4;stroke-miterlimit:3.2;}
	.st7{fill-rule:evenodd;clip-rule:evenodd;fill:#FFFFFF;stroke:#000000;stroke-width:6.4;stroke-miterlimit:3.2;}
	.st8{stroke:#000000;stroke-width:12.9296;stroke-miterlimit:3.2;}
	.st9{fill:#FFAAAA;stroke:#000000;stroke-width:12.9296;stroke-miterlimit:3.2;}
	.st10{fill:#FFFFFF;stroke:#000000;stroke-width:8;stroke-miterlimit:3.2;}
</style>
<g>
	<path class="st0" d="M411.5,43.9c0,0,18-47.3,36.8,5.9c18.9,53.2-36.6,13.6-36.6,13.6s50.8,15,19.3,46.8
		c-31.5,31.8-46.8-3.4-46.8-3.4s-11.7,49.4-20.4,13.1c-8.7-36.3,16.8-31.2,16.8-31.2s-39.1-19-20.6-51.7c18.6-32.7,50.1,2,50.1,2"/>
	<path class="st0" d="M506.7,85c0,0,50.2,6.2,3.1,37.2c-47.2,31-21.9-32.3-21.9-32.3s-2.5,52.9-40.8,29.9
		c-38.3-23-7.9-46.2-7.9-46.2s-50.7,0.4-17.6-16.7c33.2-17.1,34.3,8.9,34.3,8.9s9.2-42.5,45.3-32.3c36.2,10.2,10,49.1,10,49.1"/>
	<path class="st0" d="M287.4,95.5c0,0-34,37.5-32.1-18.9c1.9-56.4,39.1,0.7,39.1,0.7s-41.8-32.5-0.9-50.6s42.3,20.2,42.3,20.2
		s28.9-41.7,23.8-4.8c-5.1,37-27.1,22.9-27.1,22.9s29.5,32,0.3,55.7c-29.2,23.7-45.9-20.1-45.9-20.1"/>
	<path class="st0" d="M236.9,49c0,0-48.5-14.5,3.2-37.2c51.7-22.6,16.2,35.6,16.2,35.6s11.3-51.7,45.3-22.6c33.9,29.1,0,46.9,0,46.9
		s50.1,8.1,14.5,19.4c-35.6,11.3-32.3-14.5-32.3-14.5s-16.2,40.4-50.1,24.2S232,50.6,232,50.6"/>
	<path class="st0" d="M268.5,102.2c0,0,43.7,25.5-11.9,35.4s-7.4-38.4-7.4-38.4s-23.1,47.6-49.3,11.4s11-45.6,11-45.6
		s-46.8-19.6-9.6-22.3c37.2-2.7,28,21.7,28,21.7s25.2-35.5,54.4-11.8s-10.2,49.1-10.2,49.1"/>
	<path class="st0" d="M182.7,43.4c0,0,14.6-48.5,37.2,3.3c22.6,51.7-35.6,16.1-35.6,16.1S236,74.1,206.9,108s-46.9,0-46.9,0
		s-8.1,50.1-19.4,14.5s14.6-32.3,14.6-32.3S114.8,74,131,40.1s50.1-1.6,50.1-1.6"/>
	<path class="st0" d="M143.3,51.4c0,0,41.9-28.4,26.8,26c-15.1,54.4-37.8-9.9-37.8-9.9s32.9,41.4-11.1,49.4
		c-44,7.9-36.3-29.6-36.3-29.6s-37.9,33.7-24.2-1c13.7-34.7,31.7-15.9,31.7-15.9s-21.1-38.1,12.9-54.2c34-16.1,39.9,30.4,39.9,30.4"
		/>
	<path class="st0" d="M77.6,90.3c0,0-48.5-14.5,3.2-37.2C132.5,30.5,97,88.7,97,88.7s11.3-51.7,45.3-22.6c33.9,29.1,0,46.9,0,46.9
		s50.1,8.1,14.5,19.4c-35.6,11.3-32.3-14.5-32.3-14.5s-16.2,40.4-50.1,24.2S72.7,92,72.7,92"/>
	<path class="st1" d="M48.5,124.3l88.9,530.1l341,8.1l58.2-602.9c0,0-12.9,30.7-45.3,30.7s-48.5-35.6-50.1-30.7
		c-1.6,4.8-24.2,45.3-51.7,30.7C362,75.8,352.3,58,352.3,58s-19.4,42-43.6,33.9c-24.2-8.1-38.8-32.3-38.8-32.3s-11.3,42-33.9,32.3
		s-35.6-29.1-35.6-29.1s-21,55-43.6,40.4C134.1,88.7,118,69.3,118,69.3s3.2,77.6-29.1,55c-32.3-22.6-50.1-43.6-50.1-43.6L48.5,124.3
		z"/>
	<path class="st2" d="M100.2,125.9l87.3,526.9"/>
	<path class="st2" d="M166.5,103.3l64.6,551.1"/>
	<path class="st2" d="M244.1,92L268.3,656"/>
	<path class="st2" d="M313.6,93.6v564.1"/>
	<path class="st2" d="M399.2,93.6l-29.1,564.1"/>
	<path class="st2" d="M486.5,92l-59.8,567.3"/>
	<path class="st3" d="M153.2,650.7c-6.9-0.3-12.5-0.8-12.5-1.2c0-3.2-89.5-532.6-91.3-539.9c-1.3-5.3-2.4-10.6-2.4-11.7
		c0-1.1,7.8,4.6,17.3,12.6c9.6,8,20.8,16.2,24.9,18.1c5.3,2.5,7.8,4.8,8.5,7.6c1.2,5.6,85,512.1,85,514
		C182.7,651.8,180,651.8,153.2,650.7L153.2,650.7z"/>
	<path class="st3" d="M236.6,652.2c-1.1-0.7-14.3-107.7-33.6-271.9c-30-255.9-31.6-270.8-28.9-272.8c7.6-5.5,16.4-15.7,21.4-25.1
		l5.5-10.4l11.1,9.3c6.1,5.1,15.1,11,19.9,13c8.6,3.6,8.8,3.8,8.8,10.3c0,3.7,5.1,124.8,11.3,269.1c6.2,144.3,11.3,266.3,11.3,271
		v8.6l-12.5,0C244.1,653.4,237.6,652.9,236.6,652.2L236.6,652.2z"/>
	<path class="st3" d="M316.8,376.2c0-264.2,0.1-278.9,2.8-279.8c9-2.9,12.4-4.9,18.4-10.9c3.7-3.7,8.5-9.4,10.7-12.7l4-6L363.7,77
		c6,5.6,15.3,12.3,20.7,14.9c9.5,4.7,9.8,5,9.9,11.3c0,3.6-6.1,126.1-13.7,272.3c-7.6,146.2-13.7,268.9-13.7,272.7v6.9h-50.1
		L316.8,376.2L316.8,376.2z"/>
	<path class="st3" d="M435.2,657.2c-2-0.4-3.6-1.8-3.6-3.2c0-1.4,13.1-126.6,29.1-278.4c16-151.8,29.1-277.2,29.1-278.6
		c0-1.9,1.4-2.7,4.6-2.7c8.1,0,20.6-4.7,28.3-10.6c6.6-5,7.5-5.3,7.5-2.6c0,1.7-12.4,131.2-27.5,287.7
		c-15.1,156.5-27.5,285.6-27.5,287c0,2.1-2.7,2.5-18.2,2.3C447,658,437.2,657.6,435.2,657.2L435.2,657.2z"/>
	<path class="st4" d="M148.5,392.1l-43-259.7l4.6-4.6c5.9-5.9,9.5-17.8,10.7-34.7l0.9-13.3l9.6,8.9c11.6,10.7,25.2,20.1,29.1,20.1
		c1.6,0,2.8,0.5,2.8,1.1c0,0.6,14.2,121.9,31.5,269.6s31.5,269.4,31.5,270.5c0,1.4-4.8,2-17.4,2h-17.4L148.5,392.1L148.5,392.1z"/>
	<path class="st4" d="M287.3,653.9l-15.8-0.5v-7.8c0-4.3-5.1-126.1-11.3-270.6C254,230.4,248.9,108.6,249,104.4
		c0.1-6.9,0.6-8.1,5.3-11c4.4-2.7,14.1-16.3,16.2-22.4c0.3-1,4.5,2.1,9.3,6.8c9.3,9.1,19.1,15.6,26.2,17.4l4.3,1.1v558.9l-3.6-0.3
		C304.7,654.6,296,654.2,287.3,653.9L287.3,653.9z"/>
	<path class="st1" d="M375,648.8c0-4.4,6.2-127.5,13.7-273.6c7.6-146.1,13.7-268.2,13.7-271.5c0-5.4,0.5-6,5.4-6.9
		c8.6-1.6,19.6-9.7,27.1-19.8c3.8-5.2,7.1-9.6,7.2-9.9c0.2-0.3,4.2,3.5,9.1,8.3c8.4,8.4,22.7,17.2,27.9,17.2c1.4,0,2.5,1.4,2.5,3.4
		c0,1.8-13.1,127.4-29.1,279c-16,151.6-29.1,277-29.1,278.7c0,2.8-1.7,3-24.2,3H375L375,648.8L375,648.8z"/>
	<path class="st5" d="M290.6,323.1c0,49.6-25.7,89.8-57.4,90.1c-31.8,0.3-57.8-39.4-58.2-89c-0.4-49.6,24.9-90.3,56.7-91.3
		c31.8-1,58.1,38.3,58.9,87.8"/>
	<path class="st5" d="M415,311.8c0,49.6-25.7,89.8-57.4,90.1c-31.8,0.3-57.8-39.4-58.2-89c-0.4-49.6,24.9-90.3,56.7-91.3
		c31.8-1,58.1,38.3,58.9,87.8"/>
	<path class="st6" d="M265.1,325.5c0,25.3-12.7,46.1-28.9,47.6c-16.2,1.5-30.4-17-32.3-42C202,306,213,283,229,278.5
		c16-4.4,31.5,11.3,35.2,35.9l-29.9,11L265.1,325.5z"/>
	<path class="st6" d="M389.5,313.4c0,25.3-12.7,46.1-28.9,47.6c-16.2,1.5-30.4-17-32.3-42c-1.9-25.1,9.1-48.1,25.1-52.5
		c16-4.4,31.5,11.3,35.2,35.9l-29.9,11L389.5,313.4z"/>
	<path class="st7" d="M191.7,438.9l218.1,10.4c0,0-20.2,96.6-107,86.2C215.9,525.2,191.7,438.9,191.7,438.9L191.7,438.9z"/>
	<path class="st2" d="M237.6,504.1c0,0,74.3-12.9,95.4-1.6c21,11.3,29.1,21,29.1,21"/>
	<path class="st8" d="M353.2,510.5c-21.1-15.8-33.5-18.6-70.8-15.7c-13.2,1-29.3,2.7-35.6,3.8l-11.5,1.9l-9.2-10.2
		c-9.3-10.2-18.2-24.1-25.1-39c-3.3-7.2-3.4-8-1-8c9.6,0,203,9.8,203.5,10.3c0.3,0.3-1.2,5.5-3.5,11.5c-6.8,18.1-18.8,36-31.8,47.4
		l-5.7,5L353.2,510.5L353.2,510.5z"/>
	<path class="st9" d="M294.2,529.9c-16.9-3.6-36.8-12.1-46.7-20l-3.8-3.1l18.4-2.2c20.6-2.4,52.5-3,61.5-1.1
		c3.3,0.7,11.6,5,18.5,9.5c11.8,7.7,12.4,8.4,9.5,10.5C341.9,530.6,312.6,533.9,294.2,529.9L294.2,529.9z"/>
	<path class="st10" d="M160,651.2c0,0-27.5,43.6-29.1,101.8c-1.6,58.2,8.1,80.8,8.1,80.8v-1.6"/>
	<path class="st10" d="M463.9,657.6c0,0,21,27.5,21,80.8c0,53.3-17.8,93.7-17.8,93.7"/>
	<path class="st10" d="M504.3,363.5C552.8,478.2,547.9,551,547.9,551l-3.2-3.2"/>
	<path class="st10" d="M88.8,363.4C59.7,432.9,19.3,315,19.3,315h-1.6"/>
</g>
</svg>
